<svg width="150" height="141" viewBox="0 0 150 141" fill="none" xmlns="http://www.w3.org/2000/svg">

  <circle cx="74" cy="71" r="70" fill="white" />

  <ellipse cx="74" cy="91.5" rx="10" ry="7.5" fill="#010101" />

  <g>
    <ellipse cx="105" cy="71" rx="15" ry="19" fill="#4A4A4A" />
    <ellipse cx="43" cy="71" rx="15" ry="19" fill="#4A4A4A" />
  </g>

  <g>
    <circle cx="104" cy="66" r="7.5" fill="#010101" />
    <circle cx="43" cy="66" r="7.5" fill="#010101" />
  </g>

  <g>
    <circle cx="40" cy="64" r="3" fill="white" />
    <circle cx="101" cy="64" r="3" fill="white" />
  </g>

  <g>
    <path
      d="M42.8499 8.5C28.3499 14 17.9462 28.5 9.84992 43C1.34992 41.5 -2.1603 29 1.34992 19.5C6.86597 8 18.0489 0 28.8499 0C32.3499 0.5 35.8295 -1 42.8499 8.5Z"
      fill="#4A4A4A" />
    <path
      d="M107 9.5C121.5 15 131.904 29.5 140 44C148.5 42.5 152.01 30 148.5 20.5C142.984 9 131.801 1 121 1C117.5 1.5 114.02 0 107 9.5Z"
      fill="#4A4A4A" />
  </g>

  <g>
    <path d="M30 16C25.5 20 21.5 23.5 17 30C15 29.5 13 28.299 13 22.5C15 17 18 14 22.5 13C27 12 28.5 14 30 16Z"
      fill="#010101" />
    <path
      d="M119.85 17C124.35 21 128.35 24.5 132.85 31C134.85 30.5 136.85 29.299 136.85 23.5C134.85 18 131.85 15 127.35 14C122.85 13 121.35 15 119.85 17Z"
      fill="#010101" />
  </g>

</svg>
